<?xml version="1.0" encoding="utf-8"?><svg xmlns="http://www.w3.org/2000/svg" xmlns:xlink="http://www.w3.org/1999/xlink" width="1366" height="657" preserveAspectRatio="xMidYMid" viewBox="0 0 1366 657" style="z-index:1;margin-right:-2px;display:block;background-repeat-y:initial;background-repeat-x:initial;background-color:rgb(255, 255, 255);animation-play-state:paused" ><g transform="" style="animation-play-state:paused" ><linearGradient id="lg-0.9201058643008815" x1="0" x2="1" y1="0" y2="0" style="animation-play-state:paused" ><stop stop-color="#ff00ff" offset="0" style="animation-play-state:paused" ></stop>

  
<stop stop-color="#00ffff" offset="1" style="animation-play-state:paused" ></stop></linearGradient>
<path fill="url(#lg-0.9201058643008815)" opacity="0.4" d="M 0 0 M 0 557.477 Q 136.6 539.015 273.2 532.013 T 546.4 549.202 T 819.6 512.09 T 1092.8 496.026 T 1366 509.603 L 1366 169.43 Q 1229.4 167.925 1092.8 162.237 T 819.6 153.998 T 546.4 130.084 T 273.2 125.967 T 0 86.2176 Z" style="opacity:0.4;animation-play-state:paused" ></path>
<path fill="url(#lg-0.9201058643008815)" opacity="0.4" d="M 0 0 M 0 604.61 Q 136.6 580.592 273.2 574.411 T 546.4 520.286 T 819.6 509.675 T 1092.8 526.971 T 1366 492.015 L 1366 173.667 Q 1229.4 157.618 1092.8 150.124 T 819.6 154.819 T 546.4 113.174 T 273.2 65.7857 T 0 85.6574 Z" style="opacity:0.4;animation-play-state:paused" ></path>
<path fill="url(#lg-0.9201058643008815)" opacity="0.4" d="M 0 0 M 0 577.689 Q 136.6 579.384 273.2 575.08 T 546.4 558.509 T 819.6 520.902 T 1092.8 504.395 T 1366 453.686 L 1366 190.59 Q 1229.4 171.451 1092.8 163.837 T 819.6 138.959 T 546.4 95.4608 T 273.2 100.262 T 0 66.8374 Z" style="opacity:0.4;animation-play-state:paused" ></path>
<path fill="url(#lg-0.9201058643008815)" opacity="0.4" d="M 0 0 M 0 613.711 Q 136.6 553.741 273.2 550.369 T 546.4 522.753 T 819.6 508.637 T 1092.8 460.424 T 1366 467.384 L 1366 195.378 Q 1229.4 160.57 1092.8 156.144 T 819.6 113.746 T 546.4 111.168 T 273.2 104.65 T 0 88.0137 Z" style="opacity:0.4;animation-play-state:paused" ></path></g></svg>